# xmcd
#
# Track frame offsets: 
#        150
#        18663
#        36735
#        57685
#        70227
#        95842
#        110303
#        124800
#        139436
#        152130
#        168753
#        190220
#        201693
#        217820
#        235638
#        259521
#
# Disc length: 3704 seconds
#
# Revision: 0
# Processed by: cddbd v1.5.2PL0 Copyright (c) Steve Scherf et al.
# Submitted via: ExactAudioCopy v0.95b3
#
DISCID=f50e7610
DTITLE=Various Artist - New Syndicate Part IV
DYEAR=2009
DGENRE=Disco
TTITLE0=Chilly - We Are The Popkings
TTITLE1=Darlin' - Chicago
TTITLE2=A La Carte - Viva Torero
TTITLE3=Alaska - Lady
TTITLE4=Boney M. - Let It All Be Music
TTITLE5=Doris D. And The Pins - Dance At The Schoolyard
TTITLE6=Guys'N Dolls - I Got The Fire In Me
TTITLE7=Le Angeli - Old-Fashioned Love Song
TTITLE8=Belvu - Russian Disco Party
TTITLE9=Jose And The Kazoo Band - Kazoo Kazoo
TTITLE10=Dschinghis Khan - Samurai
TTITLE11=Ken Wilbard - Everything Is Going To Be All Right
TTITLE12=Fox and Promise - Amen
TTITLE13=O.R.S. - Fire On The Water
TTITLE14=Ottawan - Hands Up and D.I.S.C.O. and You're O.K. (Megamix)
TTITLE15=Arabesque - Marigot Bay
EXTD=
EXTT0=
EXTT1=
EXTT2=
EXTT3=
EXTT4=
EXTT5=
EXTT6=
EXTT7=
EXTT8=
EXTT9=
EXTT10=
EXTT11=
EXTT12=
EXTT13=
EXTT14=
EXTT15=
PLAYORDER=
